<?xml version="1.0" encoding="utf-8"?>
<!-- Generator: Adobe Illustrator 20.1.0, SVG Export Plug-In . SVG Version: 6.00 Build 0)  -->
<svg version="1.1" id="Layer_1" xmlns="http://www.w3.org/2000/svg" xmlns:xlink="http://www.w3.org/1999/xlink" x="0px" y="0px"
	 viewBox="0 0 80 80" style="enable-background:new 0 0 80 80;" xml:space="preserve">
<style type="text/css">
	.st0{opacity:0;fill:#FF0000;}
</style>
<rect class="st0" width="80" height="80"/>
<g fill="#fff" >
	<path d="M40,13.8c8.5,0,9.6,0,12.9,0.2c3.1,0.1,4.8,0.7,5.9,1.1c1.5,0.6,2.6,1.3,3.7,2.4c1.1,1.1,1.8,2.2,2.4,3.7
		c0.4,1.1,1,2.8,1.1,5.9c0.2,3.4,0.2,4.4,0.2,12.9s0,9.6-0.2,12.9c-0.1,3.1-0.7,4.8-1.1,5.9c-0.6,1.5-1.3,2.6-2.4,3.7
		c-1.1,1.1-2.2,1.8-3.7,2.4c-1.1,0.4-2.8,1-5.9,1.1c-3.4,0.2-4.4,0.2-12.9,0.2s-9.6,0-12.9-0.2c-3.1-0.1-4.8-0.7-5.9-1.1
		c-1.5-0.6-2.6-1.3-3.7-2.4c-1.1-1.1-1.8-2.2-2.4-3.7c-0.4-1.1-1-2.8-1.1-5.9c-0.2-3.4-0.2-4.4-0.2-12.9s0-9.6,0.2-12.9
		c0.1-3.1,0.7-4.8,1.1-5.9c0.6-1.5,1.3-2.6,2.4-3.7c1.1-1.1,2.2-1.8,3.7-2.4c1.1-0.4,2.8-1,5.9-1.1C30.4,13.8,31.5,13.8,40,13.8
		 M40,8c-8.7,0-9.8,0-13.2,0.2c-3.4,0.2-5.7,0.7-7.8,1.5c-2.1,0.8-3.9,1.9-5.7,3.7c-1.8,1.8-2.9,3.6-3.7,5.7c-0.8,2-1.3,4.4-1.5,7.8
		C8,30.2,8,31.3,8,40c0,8.7,0,9.8,0.2,13.2c0.2,3.4,0.7,5.7,1.5,7.8c0.8,2.1,1.9,3.9,3.7,5.7c1.8,1.8,3.6,2.9,5.7,3.7
		c2,0.8,4.4,1.3,7.8,1.5C30.2,72,31.3,72,40,72s9.8,0,13.2-0.2c3.4-0.2,5.7-0.7,7.8-1.5c2.1-0.8,3.9-1.9,5.7-3.7
		c1.8-1.8,2.9-3.6,3.7-5.7c0.8-2,1.3-4.4,1.5-7.8C72,49.8,72,48.7,72,40s0-9.8-0.2-13.2c-0.2-3.4-0.7-5.7-1.5-7.8
		c-0.8-2.1-1.9-3.9-3.7-5.7c-1.8-1.8-3.6-2.9-5.7-3.7c-2-0.8-4.4-1.3-7.8-1.5C49.8,8,48.7,8,40,8L40,8z"/>
	<path d="M40,23.6c-9.1,0-16.4,7.4-16.4,16.4c0,9.1,7.4,16.4,16.4,16.4S56.4,49.1,56.4,40C56.4,30.9,49.1,23.6,40,23.6z M40,50.7
		c-5.9,0-10.7-4.8-10.7-10.7c0-5.9,4.8-10.7,10.7-10.7c5.9,0,10.7,4.8,10.7,10.7C50.7,45.9,45.9,50.7,40,50.7z"/>
	<circle cx="57.1" cy="22.9" r="3.8"/>
</g>
</svg>
