<?xml version="1.0" encoding="utf-8"?>
<!-- Generator: Adobe Illustrator 20.1.0, SVG Export Plug-In . SVG Version: 6.00 Build 0)  -->
<svg version="1.1" id="Layer_1" xmlns="http://www.w3.org/2000/svg" xmlns:xlink="http://www.w3.org/1999/xlink" x="0px" y="0px"
	 viewBox="0 0 80 80" style="enable-background:new 0 0 80 80;" xml:space="preserve">
<style type="text/css">
	.st0{opacity:0;fill:#FF0000;}
</style>
<rect class="st0" width="80" height="80"/>
<g>
	<path fill="#fff" d="M67.3,8H12.7C10.1,8,8,10.1,8,12.6v54.8c0,2.5,2.1,4.6,4.7,4.6h54.5c2.6,0,4.7-2.1,4.7-4.6V12.6C72,10.1,69.9,8,67.3,8z
		 M27,62.5h-9.5V32H27V62.5z M22.2,27.8c-3.1,0-5.5-2.5-5.5-5.5c0-3,2.5-5.5,5.5-5.5c3,0,5.5,2.5,5.5,5.5
		C27.7,25.4,25.3,27.8,22.2,27.8z M62.5,62.5H53V47.7c0-3.5-0.1-8.1-4.9-8.1c-4.9,0-5.7,3.9-5.7,7.8v15.1h-9.5V32H42v4.2h0.1
		c1.3-2.4,4.4-4.9,9-4.9c9.6,0,11.4,6.3,11.4,14.5V62.5z"/>
</g>
</svg>
