<?xml version="1.0" encoding="utf-8"?>
<!-- Generator: Adobe Illustrator 20.1.0, SVG Export Plug-In . SVG Version: 6.00 Build 0)  -->
<svg version="1.1" id="Layer_1" xmlns="http://www.w3.org/2000/svg" xmlns:xlink="http://www.w3.org/1999/xlink" x="0px" y="0px"
	 viewBox="0 0 80 80" style="enable-background:new 0 0 80 80;" xml:space="preserve">
<style type="text/css">
	.st0{opacity:0;fill:#FF0000;}
</style>
<rect class="st0" width="80" height="80"/>
<path fill="#fff"  d="M25.9,70.1c28.5,0,44-23.6,44-44c0-0.7,0-1.3,0-2c3-2.2,5.6-4.9,7.7-8c-2.8,1.3-5.8,2.1-8.9,2.4c3.2-1.9,5.6-5,6.8-8.6
	c-3,1.8-6.4,3.1-9.8,3.8C59.9,7.5,50.1,7.2,43.8,13c-4,3.8-5.7,9.4-4.5,14.8c-12.4-0.6-24-6.5-31.9-16.2c-4.1,7.1-2,16.1,4.8,20.6
	c-2.5-0.1-4.9-0.7-7-1.9c0,0.1,0,0.1,0,0.2c0,7.4,5.2,13.7,12.4,15.2c-2.3,0.6-4.7,0.7-7,0.3c2,6.3,7.8,10.6,14.5,10.7
	c-5.5,4.3-12.2,6.6-19.2,6.6c-1.2,0-2.5-0.1-3.7-0.2C9.3,67.7,17.5,70.1,25.9,70.1"/>
</svg>
