<?xml version="1.0" encoding="utf-8"?>
<!-- Generator: Adobe Illustrator 20.1.0, SVG Export Plug-In . SVG Version: 6.00 Build 0)  -->
<svg version="1.1" id="Layer_1" xmlns="http://www.w3.org/2000/svg" xmlns:xlink="http://www.w3.org/1999/xlink" x="0px" y="0px"
	 viewBox="0 0 80 80" style="enable-background:new 0 0 80 80;" xml:space="preserve">
<style type="text/css">
	.st0{opacity:0;fill:#FF0000;}
</style>
<rect x="0" y="0" transform="matrix(6.123234e-17 -1 1 6.123234e-17 -9.094947e-13 80)" class="st0" width="80" height="80"/>
<path fill="#fff"  d="M65.2,10.7c-12-0.8-38.7-0.8-50.7,0C1.6,11.6,0.1,19.5,0,40.1c0.1,20.6,1.6,28.4,14.6,29.3c12,0.8,38.7,0.8,50.7,0
	c13-0.9,14.5-8.7,14.6-29.3C79.7,19.5,78.2,11.6,65.2,10.7z M29.9,53.4V26.8L56.5,40L29.9,53.4z"/>
</svg>
